# xmcd CD database file
#
# Track frame offsets:
#	150
#	11882
#	23142
#	35530
#	47054
#	53320
#	67172
#	83739
#	93665
#	106377
#
# Disc length: 1578 seconds
#
# Revision: 0
# Processed by: cddbd v1.5.2PL0 Copyright (c) Steve Scherf et al.
# Submitted via: CDex 1.70beta2
#
DISCID=7c06280a
DTITLE=Various Artist - 30 Country Love Songs [CD 3)
DYEAR=2006
DGENRE=Country
TTITLE0=Merle Haggard_Carolyn
TTITLE1=Ray Price_Crazy arms
TTITLE2=Charlie Rich_Behind closed doors
TTITLE3=Freddy Fender_Before the next teardrop falls
TTITLE4=Mickey Gilley_I overlooked an orchid (Live)
TTITLE5=Webb Pierce_That heart belongs to me
TTITLE6=Lee Greenwood_Somebody's gonna love you
TTITLE7=Eddy Arnold_I wanna play house with you
TTITLE8=Carl Smith_Let old mother nature have her way
TTITLE9=Hank Williams_Take these chains from my heart
EXTD=YEAR: 2006
EXTT0=
EXTT1=
EXTT2=
EXTT3=
EXTT4=
EXTT5=
EXTT6=
EXTT7=
EXTT8=
EXTT9=
PLAYORDER=
